<svg width="14" height="25" viewBox="0 0 14 25" fill="none" xmlns="http://www.w3.org/2000/svg">
<path d="M13.0612 13.5625L3.0612 23.5625C2.7794 23.8443 2.39721 24.0026 1.9987 24.0026C1.60018 24.0026 1.21799 23.8443 0.936195 23.5625C0.654403 23.2807 0.496094 22.8985 0.496094 22.5C0.496094 22.1015 0.654403 21.7193 0.936195 21.4375L9.87495 12.5012L0.938696 3.56248C0.799166 3.42295 0.688485 3.2573 0.612972 3.075C0.537459 2.89269 0.498593 2.6973 0.498593 2.49998C0.498593 2.30265 0.537459 2.10726 0.612972 1.92496C0.688485 1.74265 0.799166 1.57701 0.938696 1.43748C1.07823 1.29795 1.24387 1.18727 1.42618 1.11175C1.60848 1.03624 1.80387 0.997375 2.0012 0.997375C2.19852 0.997375 2.39391 1.03624 2.57622 1.11175C2.75852 1.18727 2.92417 1.29795 3.0637 1.43748L13.0637 11.4375C13.2034 11.577 13.3141 11.7427 13.3896 11.9251C13.4651 12.1076 13.5039 12.3031 13.5036 12.5005C13.5034 12.6979 13.4642 12.8934 13.3883 13.0756C13.3123 13.2578 13.2012 13.4233 13.0612 13.5625Z" fill="white"/>
</svg>
