<svg width="32" height="32" viewBox="0 0 32 32" fill="none" xmlns="http://www.w3.org/2000/svg">
<path d="M14.9388 23.0612L4.9388 13.0612C4.65701 12.7794 4.4987 12.3972 4.4987 11.9987C4.4987 11.6002 4.65701 11.218 4.9388 10.9362C5.2206 10.6544 5.60279 10.4961 6.0013 10.4961C6.39982 10.4961 6.78201 10.6544 7.0638 10.9362L16.0001 19.8749L24.9388 10.9387C25.0783 10.7992 25.244 10.6885 25.4263 10.613C25.6086 10.5375 25.804 10.4986 26.0013 10.4986C26.1986 10.4986 26.394 10.5375 26.5763 10.613C26.7586 10.6885 26.9243 10.7992 27.0638 10.9387C27.2033 11.0782 27.314 11.2439 27.3895 11.4262C27.465 11.6085 27.5039 11.8039 27.5039 12.0012C27.5039 12.1985 27.465 12.3939 27.3895 12.5762C27.314 12.7585 27.2033 12.9242 27.0638 13.0637L17.0638 23.0637C16.9243 23.2034 16.7586 23.3141 16.5761 23.3896C16.3937 23.4651 16.1982 23.5039 16.0008 23.5036C15.8034 23.5034 15.6079 23.4642 15.4257 23.3883C15.2435 23.3123 15.078 23.2012 14.9388 23.0612Z" fill="white"/>
</svg>
