<svg width="56" height="56" viewBox="0 0 56 56" fill="none" xmlns="http://www.w3.org/2000/svg">
<path id="pfp" d="M28 0C22.4621 0 17.0486 1.64217 12.444 4.71885C7.83947 7.79553 4.25064 12.1685 2.13139 17.2849C0.012132 22.4012 -0.542361 28.0311 0.538025 33.4625C1.61841 38.894 4.28515 43.8831 8.20102 47.799C12.1169 51.7149 17.106 54.3816 22.5375 55.462C27.9689 56.5424 33.5988 55.9879 38.7151 53.8686C43.8315 51.7494 48.2045 48.1605 51.2812 43.556C54.3578 38.9514 56 33.5379 56 28C55.9922 20.5763 53.0397 13.459 47.7903 8.20967C42.541 2.96035 35.4237 0.00783951 28 0ZM13.4831 46.7115C15.0412 44.2747 17.1877 42.2693 19.7247 40.8801C22.2617 39.491 25.1076 38.7629 28 38.7629C30.8924 38.7629 33.7383 39.491 36.2753 40.8801C38.8123 42.2693 40.9588 44.2747 42.5169 46.7115C38.3663 49.9396 33.2581 51.6921 28 51.6921C22.7419 51.6921 17.6337 49.9396 13.4831 46.7115ZM19.3846 25.8461C19.3846 24.1422 19.8899 22.4765 20.8366 21.0597C21.7832 19.6429 23.1288 18.5387 24.703 17.8866C26.2773 17.2345 28.0096 17.0639 29.6808 17.3963C31.352 17.7287 32.8871 18.5493 34.092 19.7542C35.2969 20.959 36.1174 22.4942 36.4498 24.1654C36.7823 25.8366 36.6117 27.5689 35.9596 29.1431C35.3075 30.7174 34.2033 32.0629 32.7865 33.0096C31.3697 33.9562 29.704 34.4615 28 34.4615C25.7151 34.4615 23.5237 33.5538 21.908 31.9381C20.2923 30.3224 19.3846 28.1311 19.3846 25.8461ZM45.7046 43.7258C43.3025 40.2448 39.9247 37.5518 35.9962 35.9854C38.1064 34.3233 39.6463 32.0449 40.4017 29.467C41.157 26.8892 41.0903 24.14 40.2107 21.6019C39.3312 19.0637 37.6826 16.8627 35.4941 15.3049C33.3057 13.7472 30.6862 12.9101 28 12.9101C25.3138 12.9101 22.6943 13.7472 20.5059 15.3049C18.3174 16.8627 16.6688 19.0637 15.7893 21.6019C14.9097 24.14 14.843 26.8892 15.5984 29.467C16.3537 32.0449 17.8936 34.3233 20.0039 35.9854C16.0753 37.5518 12.6976 40.2448 10.2954 43.7258C7.26 40.3124 5.27605 36.0943 4.58244 31.5794C3.88883 27.0646 4.51514 22.4455 6.38594 18.2783C8.25675 14.1112 11.2923 10.5737 15.127 8.09183C18.9618 5.60995 23.4322 4.28951 28 4.28951C32.5678 4.28951 37.0383 5.60995 40.873 8.09183C44.7077 10.5737 47.7433 14.1112 49.6141 18.2783C51.4849 22.4455 52.1112 27.0646 51.4176 31.5794C50.724 36.0943 48.74 40.3124 45.7046 43.7258Z" fill="white"/>
</svg>
